# Blender v3.0.0 OBJ File: 'untitled.blend'
# www.blender.org
mtllib arena.mtl
o Cylinder_Cylinder.001
v 0.000000 0.138527 -3.654252
v 0.000000 -0.138527 -3.654252
v 0.712909 0.138527 -3.584037
v 0.712909 -0.138527 -3.584037
v 1.398422 0.138527 -3.376089
v 1.398422 -0.138527 -3.376089
v 2.030194 0.138527 -3.038400
v 2.030194 -0.138527 -3.038400
v 2.583946 0.138527 -2.583946
v 2.583946 -0.138527 -2.583946
v 3.038400 0.138527 -2.030194
v 3.038400 -0.138527 -2.030194
v 3.376089 0.138527 -1.398422
v 3.376089 -0.138527 -1.398422
v 3.584037 0.138527 -0.712909
v 3.584037 -0.138527 -0.712909
v 3.654252 0.138527 0.000000
v 3.654252 -0.138527 0.000000
v 3.584037 0.138527 0.712909
v 3.584037 -0.138527 0.712909
v 3.376089 0.138527 1.398422
v 3.376089 -0.138527 1.398422
v 3.038400 0.138527 2.030194
v 3.038400 -0.138527 2.030194
v 2.583946 0.138527 2.583946
v 2.583946 -0.138527 2.583946
v -2.583946 0.138527 2.583947
v -2.583946 -0.138527 2.583947
v -3.038399 0.138527 2.030195
v -3.038399 -0.138527 2.030195
v -3.376089 0.138527 1.398422
v -3.376089 -0.138527 1.398422
v -3.584037 0.138527 0.712909
v -3.584037 -0.138527 0.712909
v -3.654252 0.138527 -0.000000
v -3.654252 -0.138527 -0.000000
v -3.584037 0.138527 -0.712910
v -3.584037 -0.138527 -0.712910
v -3.376089 0.138527 -1.398422
v -3.376089 -0.138527 -1.398422
v -3.038400 0.138527 -2.030193
v -3.038400 -0.138527 -2.030193
v -2.583947 0.138527 -2.583946
v -2.583947 -0.138527 -2.583946
v -2.030194 0.138527 -3.038400
v -2.030194 -0.138527 -3.038400
v -1.398422 0.138527 -3.376089
v -1.398422 -0.138527 -3.376089
v -0.712909 0.138527 -3.584037
v -0.712909 -0.138527 -3.584037
v 2.793090 -0.150894 1.866282
v 1.866283 0.150894 -2.793090
v -2.375327 0.150894 -2.375328
v -2.375327 -0.150894 2.375328
v -2.375327 -0.150894 -2.375328
v 1.285519 0.150894 -3.103514
v 2.375327 0.150894 2.375327
v -2.793089 0.150894 1.866283
v 1.285519 -0.150894 -3.103514
v -1.866283 -0.150894 -2.793089
v 2.793090 0.150894 1.866282
v 2.793090 0.150894 1.866283
v -2.375327 0.150894 2.375328
v -2.375327 0.150894 2.375328
v 0.655351 -0.150894 -3.294673
v 0.655351 -0.150894 -3.294673
v 0.655351 0.150894 -3.294673
v -1.285518 0.150894 -3.103514
v 1.866283 -0.150894 -2.793090
v 0.655351 0.150894 -3.294673
v 2.793090 -0.150894 1.866283
v 2.375327 0.150894 -2.375327
v -2.375327 -0.150894 2.375328
v -1.866283 0.150894 -2.793089
v -1.866283 0.150894 -2.793089
v 2.375327 -0.150894 2.375327
v 0.000000 0.150894 -3.359220
v 1.866283 0.150894 -2.793089
v 0.000000 -0.150894 -3.359220
v -2.793089 -0.150894 1.866283
v -1.866283 -0.150894 -2.793089
v -0.000000 0.150894 -3.359220
v -3.103514 0.150894 1.285519
v 1.866283 -0.150894 -2.793089
v -1.285518 -0.150894 -3.103514
v -0.000000 -0.150894 -3.359220
v 1.285518 0.150894 -3.103514
v 1.285518 -0.150894 -3.103514
v 2.375327 -0.150894 -2.375327
v -0.655351 0.150894 -3.294674
v -0.655351 0.150894 -3.294674
v 2.793089 0.150894 -1.866283
v -2.793089 -0.150894 1.866283
v -1.285518 0.150894 -3.103515
v -3.103514 -0.150894 1.285519
v -1.285518 -0.150894 -3.103515
v -3.294673 0.150894 0.655352
v -3.294673 0.150894 0.655351
v 2.793089 -0.150894 -1.866283
v -0.655351 -0.150894 -3.294674
v -0.655351 -0.150894 -3.294674
v -3.103514 0.150894 1.285518
v 3.103514 0.150894 -1.285518
v -3.103514 -0.150894 1.285518
v 2.793089 0.150894 -1.866283
v -3.294673 -0.150894 0.655351
v -3.294673 -0.150894 0.655352
v 2.793089 -0.150894 -1.866283
v 3.103514 -0.150894 -1.285518
v -3.359220 0.150894 -0.000000
v -3.359220 0.150894 -0.000000
v 3.294673 0.150894 -0.655352
v -3.359220 -0.150894 -0.000000
v -3.359220 -0.150894 -0.000000
v 3.294673 -0.150894 -0.655352
v 3.359220 0.150894 0.000000
v -3.294673 0.150894 -0.655352
v -3.294673 0.150894 -0.655352
v 3.294673 0.150894 -0.655351
v 3.294673 -0.150894 -0.655351
v 3.359220 -0.150894 0.000000
v -3.294673 -0.150894 -0.655352
v -3.294673 -0.150894 -0.655352
v 3.294673 0.150894 0.655351
v -3.103514 0.150894 -1.285518
v 3.359220 0.150894 0.000000
v 3.359220 -0.150894 0.000000
v -3.103514 -0.150894 -1.285518
v -2.793090 0.150894 -1.866282
v 3.294673 -0.150894 0.655351
v -3.103514 0.150894 -1.285518
v 3.103514 0.150894 1.285518
v 3.103515 0.150894 1.285518
v -3.103514 -0.150894 -1.285518
v -2.793090 -0.150894 -1.866282
v 3.294673 0.150894 0.655351
v -2.375328 0.150894 -2.375327
v -2.793090 0.150894 -1.866282
v 3.294673 -0.150894 0.655351
v -2.793090 -0.150894 -1.866282
v -2.375328 -0.150894 -2.375327
v 3.103514 -0.150894 1.285518
v 3.103515 -0.150894 1.285518
v 2.047387 -0.138527 3.024290
v 2.047387 0.138527 3.024290
v -2.047387 -0.138527 3.024290
v -2.047387 0.138527 3.024290
v 2.047387 0.150894 2.644461
v 2.047387 -0.150894 2.644461
v -2.047387 0.150894 2.644461
v -2.047387 -0.150894 2.644461
v -2.047387 0.150894 2.644461
vt 0.031250 0.525000
vt 0.000000 0.525000
vt 0.000000 0.975000
vt 0.031250 0.975000
vt 0.937500 0.525000
vt 0.906250 0.525000
vt 0.906250 0.975000
vt 0.937500 0.975000
vt 0.875000 0.525000
vt 0.875000 0.975000
vt 0.843750 0.525000
vt 0.843750 0.975000
vt 0.812500 0.525000
vt 0.812500 0.975000
vt 0.781250 0.525000
vt 0.781250 0.975000
vt 0.750000 0.525000
vt 0.750000 0.975000
vt 0.718750 0.525000
vt 0.718750 0.975000
vt 0.687500 0.525000
vt 0.687500 0.975000
vt 0.656250 0.525000
vt 0.656250 0.975000
vt 0.625000 0.525000
vt 0.625000 0.975000
vt 0.594720 0.525000
vt 0.594720 0.975000
vt 0.375000 0.975000
vt 0.405280 0.975000
vt 0.405280 0.525000
vt 0.375000 0.525000
vt 0.343750 0.525000
vt 0.343750 0.975000
vt 0.312500 0.525000
vt 0.312500 0.975000
vt 0.281250 0.525000
vt 0.281250 0.975000
vt 0.250000 0.525000
vt 0.250000 0.975000
vt 0.218750 0.525000
vt 0.218750 0.975000
vt 0.187500 0.525000
vt 0.187500 0.975000
vt 0.156250 0.525000
vt 0.156250 0.975000
vt 0.125000 0.525000
vt 0.125000 0.975000
vt 0.093750 0.525000
vt 0.093750 0.975000
vt 0.062500 0.525000
vt 0.062500 0.975000
vt 0.968750 0.525000
vt 0.968750 0.975000
vt 1.000000 0.525000
vt 1.000000 0.975000
vt 0.998739 0.504913
vt 0.998739 0.504913
vt 0.970012 0.504913
vt 0.998739 0.995087
vt 0.998739 0.995087
vt 0.970012 0.995087
vt 0.967489 0.504913
vt 0.967488 0.504913
vt 0.938762 0.504913
vt 0.938761 0.504913
vt 0.938761 0.995087
vt 0.967489 0.995087
vt 0.967489 0.995087
vt 0.938761 0.995087
vt 0.936238 0.504913
vt 0.907512 0.504913
vt 0.907511 0.995087
vt 0.936239 0.995087
vt 0.904989 0.504913
vt 0.904989 0.504913
vt 0.876261 0.504913
vt 0.904989 0.995087
vt 0.904989 0.995087
vt 0.876261 0.995087
vt 0.873739 0.504913
vt 0.845012 0.504913
vt 0.845012 0.995087
vt 0.873739 0.995087
vt 0.842489 0.504913
vt 0.842489 0.504913
vt 0.813762 0.504913
vt 0.813761 0.995087
vt 0.842489 0.995087
vt 0.842489 0.995087
vt 0.811238 0.504913
vt 0.782512 0.504913
vt 0.782512 0.995087
vt 0.811239 0.995087
vt 0.779989 0.504913
vt 0.779989 0.504913
vt 0.751261 0.504913
vt 0.779989 0.995087
vt 0.779988 0.995087
vt 0.751261 0.995087
vt 0.720012 0.504913
vt 0.748738 0.504913
vt 0.748738 0.504913
vt 0.720011 0.995087
vt 0.748738 0.995087
vt 0.748738 0.995087
vt 0.717488 0.504913
vt 0.717489 0.504913
vt 0.688761 0.504913
vt 0.688762 0.504913
vt 0.717489 0.995087
vt 0.688762 0.995087
vt 0.688762 0.995087
vt 0.717489 0.995087
vt 0.686238 0.504913
vt 0.657512 0.504913
vt 0.657512 0.995087
vt 0.686238 0.995087
vt 0.654988 0.504913
vt 0.654988 0.504913
vt 0.626261 0.504913
vt 0.654988 0.995087
vt 0.654988 0.995087
vt 0.626262 0.995087
vt 0.605232 0.504913
vt 0.623739 0.504913
vt 0.605232 0.995087
vt 0.623738 0.995087
vt 0.394768 0.504913
vt 0.376262 0.504913
vt 0.376262 0.995087
vt 0.394768 0.995087
vt 0.373739 0.504913
vt 0.345012 0.504913
vt 0.373739 0.504913
vt 0.373739 0.995087
vt 0.373739 0.995087
vt 0.345011 0.995087
vt 0.342488 0.504913
vt 0.313762 0.504913
vt 0.342488 0.995087
vt 0.342488 0.995087
vt 0.313762 0.995087
vt 0.311238 0.504913
vt 0.311238 0.504913
vt 0.282512 0.504913
vt 0.282512 0.504913
vt 0.282512 0.995087
vt 0.282512 0.995087
vt 0.311238 0.995087
vt 0.311238 0.995087
vt 0.251262 0.504913
vt 0.251262 0.504913
vt 0.279988 0.504913
vt 0.251262 0.995087
vt 0.251262 0.995087
vt 0.279988 0.995087
vt 0.248738 0.504913
vt 0.220012 0.504913
vt 0.220012 0.504913
vt 0.220012 0.995087
vt 0.248738 0.995087
vt 0.220011 0.995087
vt 0.217488 0.504913
vt 0.188762 0.504913
vt 0.188762 0.995087
vt 0.217488 0.995087
vt 0.186238 0.504913
vt 0.186238 0.504913
vt 0.157512 0.504913
vt 0.157512 0.995087
vt 0.186238 0.995087
vt 0.186238 0.995087
vt 0.154989 0.504913
vt 0.154989 0.504913
vt 0.126261 0.504913
vt 0.126261 0.504913
vt 0.154989 0.995087
vt 0.126261 0.995087
vt 0.126261 0.995087
vt 0.154989 0.995087
vt 0.123738 0.504913
vt 0.095012 0.504913
vt 0.095012 0.995087
vt 0.123738 0.995087
vt 0.092488 0.504913
vt 0.092488 0.504913
vt 0.063762 0.504913
vt 0.092488 0.995087
vt 0.092488 0.995087
vt 0.063762 0.995087
vt 0.061239 0.504913
vt 0.061239 0.504913
vt 0.032511 0.504913
vt 0.032511 0.504913
vt 0.032511 0.995087
vt 0.032511 0.995087
vt 0.061239 0.995087
vt 0.061239 0.995087
vt 0.029988 0.504913
vt 0.001262 0.504913
vt 0.001262 0.995087
vt 0.029988 0.995087
vt 0.968750 0.738770
vt 0.968750 0.738770
vt 0.968750 0.761230
vt 0.968750 0.761230
vt 1.000000 0.761230
vt 1.000000 0.738770
vt 0.937500 0.761230
vt 0.937500 0.738770
vt 0.906250 0.738770
vt 0.906250 0.761230
vt 0.906250 0.761230
vt 0.937500 0.761230
vt 0.937500 0.738770
vt 0.906250 0.738770
vt 0.875000 0.738770
vt 0.875000 0.761230
vt 0.843750 0.738770
vt 0.843750 0.738770
vt 0.843750 0.761230
vt 0.843750 0.761230
vt 0.812500 0.738770
vt 0.812500 0.761230
vt 0.781250 0.738770
vt 0.781250 0.738770
vt 0.781250 0.761230
vt 0.781250 0.761230
vt 0.750000 0.761230
vt 0.750000 0.738770
vt 0.750000 0.738770
vt 0.750000 0.761230
vt 0.718750 0.761230
vt 0.718750 0.761230
vt 0.718750 0.738770
vt 0.718750 0.738770
vt 0.687500 0.738770
vt 0.687500 0.761230
vt 0.656250 0.761230
vt 0.656250 0.761230
vt 0.687500 0.761230
vt 0.687500 0.738770
vt 0.656250 0.738770
vt 0.656250 0.738770
vt 0.625000 0.738770
vt 0.625000 0.761230
vt 0.604868 0.738770
vt 0.604868 0.761230
vt 0.395132 0.761230
vt 0.395132 0.761230
vt 0.395132 0.738770
vt 0.375000 0.738770
vt 0.375000 0.738770
vt 0.375000 0.761230
vt 0.375000 0.761230
vt 0.343750 0.738770
vt 0.343750 0.738770
vt 0.343750 0.761230
vt 0.312500 0.761230
vt 0.312500 0.761230
vt 0.312500 0.738770
vt 0.312500 0.738770
vt 0.281250 0.738770
vt 0.281250 0.761230
vt 0.250000 0.738770
vt 0.250000 0.761230
vt 0.281250 0.761230
vt 0.281250 0.738770
vt 0.250000 0.738770
vt 0.218750 0.738770
vt 0.218750 0.761230
vt 0.250000 0.761230
vt 0.218750 0.738770
vt 0.187500 0.738770
vt 0.187500 0.738770
vt 0.187500 0.761230
vt 0.187500 0.761230
vt 0.218750 0.761230
vt 0.156250 0.761230
vt 0.156250 0.761230
vt 0.156250 0.738770
vt 0.156250 0.738770
vt 0.125000 0.738770
vt 0.125000 0.761230
vt 0.093750 0.761230
vt 0.093750 0.761230
vt 0.125000 0.761230
vt 0.125000 0.738770
vt 0.093750 0.738770
vt 0.093750 0.738770
vt 0.062500 0.761230
vt 0.062500 0.761230
vt 0.062500 0.738770
vt 0.062500 0.738770
vt 0.031250 0.738770
vt 0.031250 0.761230
vt 0.031250 0.738770
vt 0.000000 0.738770
vt 0.000000 0.738770
vt 0.000000 0.761230
vt 0.000000 0.761230
vt 0.031250 0.761230
vt 0.509213 0.605663
vt 0.490787 0.605663
vt 0.491542 0.628853
vt 0.508458 0.628853
vt 0.490787 0.144337
vt 0.509213 0.144337
vt 0.509213 0.144337
vt 0.508458 0.121147
vt 0.491542 0.121147
vn -0.0980 0.0000 -0.9952
vn 0.4714 0.0000 -0.8819
vn 0.6344 0.0000 -0.7730
vn 0.7730 0.0000 -0.6344
vn 0.8819 0.0000 -0.4714
vn 0.9569 0.0000 -0.2903
vn 0.9952 0.0000 -0.0980
vn 0.9952 0.0000 0.0980
vn 0.9569 0.0000 0.2903
vn 0.8819 0.0000 0.4714
vn 0.7730 0.0000 0.6344
vn 0.6344 0.0000 0.7730
vn -0.6344 0.0000 0.7730
vn -0.7730 0.0000 0.6344
vn -0.8819 0.0000 0.4714
vn -0.9569 0.0000 0.2903
vn -0.9952 0.0000 0.0980
vn -0.9952 0.0000 -0.0980
vn -0.9569 0.0000 -0.2903
vn -0.8819 0.0000 -0.4714
vn -0.7730 0.0000 -0.6344
vn -0.6344 0.0000 -0.7730
vn -0.4714 0.0000 -0.8819
vn -0.2903 0.0000 -0.9569
vn 0.2903 0.0000 -0.9569
vn 0.0980 0.0000 -0.9952
vn 0.0041 0.9991 -0.0419
vn 0.0041 -0.9991 -0.0419
vn 0.0122 0.9991 -0.0403
vn 0.0122 -0.9991 -0.0403
vn 0.0198 0.9991 -0.0371
vn 0.0198 -0.9991 -0.0371
vn 0.0267 0.9991 -0.0325
vn 0.0267 -0.9991 -0.0325
vn 0.0325 0.9991 -0.0267
vn 0.0325 -0.9991 -0.0267
vn 0.0371 0.9991 -0.0198
vn 0.0371 -0.9991 -0.0198
vn 0.0403 0.9991 -0.0122
vn 0.0403 -0.9991 -0.0122
vn 0.0419 0.9991 -0.0041
vn 0.0419 -0.9991 -0.0041
vn 0.0000 -1.0000 0.0000
vn 0.0419 0.9991 0.0041
vn 0.0419 -0.9991 0.0041
vn 0.0403 0.9991 0.0122
vn 0.0000 1.0000 0.0032
vn 0.0403 -0.9991 0.0122
vn 0.0371 0.9991 0.0198
vn 0.0371 -0.9991 0.0198
vn 0.0325 0.9991 0.0267
vn 0.0325 -0.9991 0.0267
vn 0.0267 0.9991 0.0325
vn 0.0267 -0.9991 0.0325
vn -0.0267 0.9991 0.0325
vn -0.0267 -0.9991 0.0325
vn -0.0325 0.9991 0.0267
vn -0.0325 -0.9991 0.0267
vn -0.0371 0.9991 0.0198
vn -0.0371 -0.9991 0.0198
vn -0.0403 0.9991 0.0122
vn -0.0403 -0.9991 0.0122
vn -0.0419 0.9991 0.0041
vn -0.0419 -0.9991 0.0041
vn -0.0419 0.9991 -0.0041
vn -0.0419 -0.9991 -0.0041
vn -0.0403 0.9991 -0.0122
vn -0.0403 -0.9991 -0.0122
vn -0.0371 0.9991 -0.0198
vn -0.0371 -0.9991 -0.0198
vn -0.0325 0.9991 -0.0267
vn 0.0000 0.9998 -0.0202
vn -0.0325 -0.9991 -0.0267
vn -0.0267 0.9991 -0.0325
vn -0.0267 -0.9991 -0.0325
vn -0.0198 0.9991 -0.0371
vn -0.0198 -0.9991 -0.0371
vn -0.0122 0.9991 -0.0403
vn -0.0122 -0.9991 -0.0403
vn -0.0041 0.9991 -0.0419
vn -0.0041 -0.9991 -0.0419
vn -0.0980 0.0000 0.9952
vn -0.2903 0.0000 0.9569
vn -0.4714 0.0000 0.8819
vn 0.4714 -0.0000 0.8819
vn 0.2903 0.0000 0.9569
vn 0.0980 0.0000 0.9952
vn -1.0000 0.0000 0.0000
vn 1.0000 0.0000 0.0000
usemtl Material
s off
f 49/1/1 1/2/1 2/3/1 50/4/1
f 5/5/2 7/6/2 8/7/2 6/8/2
f 7/6/3 9/9/3 10/10/3 8/7/3
f 9/9/4 11/11/4 12/12/4 10/10/4
f 11/11/5 13/13/5 14/14/5 12/12/5
f 13/13/6 15/15/6 16/16/6 14/14/6
f 15/15/7 17/17/7 18/18/7 16/16/7
f 17/17/8 19/19/8 20/20/8 18/18/8
f 19/19/9 21/21/9 22/22/9 20/20/9
f 21/21/10 23/23/10 24/24/10 22/22/10
f 23/23/11 25/25/11 26/26/11 24/24/11
f 25/25/12 145/27/12 144/28/12 26/26/12
f 28/29/13 146/30/13 147/31/13 27/32/13
f 27/32/14 29/33/14 30/34/14 28/29/14
f 29/33/15 31/35/15 32/36/15 30/34/15
f 31/35/16 33/37/16 34/38/16 32/36/16
f 33/37/17 35/39/17 36/40/17 34/38/17
f 35/39/18 37/41/18 38/42/18 36/40/18
f 37/41/19 39/43/19 40/44/19 38/42/19
f 39/43/20 41/45/20 42/46/20 40/44/20
f 41/45/21 43/47/21 44/48/21 42/46/21
f 43/47/22 45/49/22 46/50/22 44/48/22
f 45/49/23 47/51/23 48/52/23 46/50/23
f 47/51/24 49/1/24 50/4/24 48/52/24
f 3/53/25 5/5/25 6/8/25 4/54/25
f 1/55/26 3/53/26 4/54/26 2/56/26
f 82/57/27 77/58/27 67/59/27 3/53/27 1/55/27
f 79/60/28 86/61/28 2/56/28 4/54/28 66/62/28
f 67/63/29 70/64/29 87/65/29 56/66/29 5/5/29 3/53/29
f 88/67/30 65/68/30 66/69/30 4/54/30 6/8/30 59/70/30
f 5/5/31 56/71/31 52/72/31 7/6/31
f 69/73/32 59/74/32 6/8/32 8/7/32
f 52/75/33 78/76/33 72/77/33 9/9/33 7/6/33
f 84/78/34 69/79/34 8/7/34 10/10/34 89/80/34
f 72/81/35 92/82/35 11/11/35 9/9/35
f 99/83/36 89/84/36 10/10/36 12/12/36
f 92/85/37 105/86/37 103/87/37 13/13/37 11/11/37
f 109/88/38 108/89/38 99/90/38 12/12/38 14/14/38
f 103/91/39 112/92/39 15/15/39 13/13/39
f 115/93/40 109/94/40 14/14/40 16/16/40
f 112/95/41 119/96/41 116/97/41 17/17/41 15/15/41
f 120/98/42 115/99/42 16/16/42 18/18/42 121/100/42
f 124/101/43 116/102/43 126/103/43
f 116/102/44 124/101/44 19/19/44 17/17/44
f 20/20/45 130/104/45 127/105/45 121/106/45 18/18/45
f 19/19/46 124/107/46 136/108/46 133/109/46 132/110/46 21/21/46
f 139/111/47 142/112/47 143/113/47
f 142/112/48 139/111/48 130/114/48 20/20/48 22/22/48
f 21/21/49 132/115/49 61/116/49 23/23/49
f 51/117/50 142/118/50 22/22/50 24/24/50
f 61/119/51 62/120/51 57/121/51 25/25/51 23/23/51
f 71/122/52 51/123/52 24/24/52 26/26/52 76/124/52
f 148/125/53 145/27/53 25/25/53 57/126/53
f 144/28/54 149/127/54 76/128/54 26/26/54
f 147/31/55 150/129/55 63/130/55 27/32/55
f 54/131/56 151/132/56 146/30/56 28/29/56
f 64/133/57 58/134/57 29/33/57 27/32/57 63/135/57
f 73/136/58 54/137/58 28/29/58 30/34/58 80/138/58
f 29/33/59 58/139/59 83/140/59 31/35/59
f 93/141/60 80/142/60 30/34/60 32/36/60 95/143/60
f 83/144/61 102/145/61 97/146/61 98/147/61 33/37/61 31/35/61
f 34/38/62 106/148/62 107/149/62 104/150/62 95/151/62 32/36/62
f 110/152/63 111/153/63 35/39/63 33/37/63 98/154/63
f 114/155/64 113/156/64 106/157/64 34/38/64 36/40/64
f 111/158/65 118/159/65 117/160/65 37/41/65 35/39/65
f 123/161/66 114/162/66 36/40/66 38/42/66 122/163/66
f 37/41/67 117/164/67 125/165/67 39/43/67
f 128/166/68 122/167/68 38/42/68 40/44/68
f 39/43/69 125/168/69 131/169/69 129/170/69 41/45/69
f 135/171/70 134/172/70 128/173/70 40/44/70 42/46/70
f 41/45/71 129/174/71 138/175/71 137/176/71 53/177/71 43/47/71
f 140/178/72 55/179/72 141/180/72
f 55/179/73 140/178/73 135/181/73 42/46/73 44/48/73
f 43/47/74 53/182/74 74/183/74 45/49/74
f 60/184/75 55/185/75 44/48/75 46/50/75
f 74/186/76 75/187/76 68/188/76 47/51/76 45/49/76
f 81/189/77 60/190/77 46/50/77 48/52/77 85/191/77
f 47/51/78 68/192/78 94/193/78 91/194/78 90/195/78 49/1/78
f 50/4/79 100/196/79 101/197/79 96/198/79 85/199/79 48/52/79
f 49/1/80 90/200/80 82/201/80 1/2/80
f 86/202/81 100/203/81 50/4/81 2/3/81
f 66/204/82 65/205/82 70/206/82 67/207/82 77/208/82 79/209/82
f 87/210/83 70/206/83 65/205/83 88/211/83
f 84/212/84 78/213/84 52/214/84 56/215/84 87/210/84 88/211/84 59/216/84 69/217/84
f 84/212/13 89/218/13 72/219/13 78/213/13
f 99/220/14 108/221/14 105/222/14 92/223/14 72/219/14 89/218/14
f 105/222/15 108/221/15 109/224/15 103/225/15
f 115/226/16 120/227/16 119/228/16 112/229/16 103/225/16 109/224/16
f 116/230/17 119/228/17 120/227/17 121/231/17 127/232/17 126/233/17
f 136/234/18 124/235/18 126/233/18 127/232/18 130/236/18 139/237/18
f 136/234/19 139/237/19 143/238/19 133/239/19
f 62/240/20 61/241/20 132/242/20 133/239/20 143/238/20 142/243/20 51/244/20 71/245/20
f 62/240/21 71/245/21 76/246/21 57/247/21
f 76/246/22 149/248/22 148/249/22 57/247/22
f 150/250/3 152/251/3 151/252/3 54/253/3 73/254/3 64/255/3 63/256/3
f 73/254/4 80/257/4 93/258/4 58/259/4 64/255/4
f 102/260/5 83/261/5 58/259/5 93/258/5 95/262/5 104/263/5
f 104/263/6 107/264/6 97/265/6 102/260/6
f 113/266/7 110/267/7 98/268/7 97/265/7 107/264/7 106/269/7
f 113/266/8 114/270/8 123/271/8 118/272/8 111/273/8 110/267/8
f 123/271/9 122/274/9 128/275/9 134/276/9 131/277/9 125/278/9 117/279/9 118/272/9
f 138/280/10 129/281/10 131/277/10 134/276/10 135/282/10 140/283/10
f 140/283/11 141/284/11 137/285/11 138/280/11
f 75/286/12 74/287/12 53/288/12 137/285/12 141/284/12 55/289/12 60/290/12 81/291/12
f 94/292/85 68/293/85 75/286/85 81/291/85 85/294/85 96/295/85
f 96/295/86 101/296/86 91/297/86 94/292/86
f 101/296/87 100/298/87 86/299/87 79/300/87 77/301/87 82/302/87 90/303/87 91/297/87
f 148/304/88 149/305/88 144/306/88 145/307/88
f 151/308/89 152/309/89 150/310/89 147/311/89 146/312/89
